<svg xmlns="http://www.w3.org/2000/svg" viewBox="0 0 1200 396" width="1200" height="396" role="img" aria-labelledby="st">
<title id="st">Stack, by domain: mobile, web, backend, platform, reliability, systems and ML</title>
<style>
  :root{
    --bg:#f6f8fa; --border:#d8dee4; --grid:#e9edf1; --card:#ffffff; --sunk:#eef1f4;
    --fg:#1f2328; --muted:#59636e; --dim:#818b98; --line:#d8dee4;
    --green:#1a7f37; --blue:#0969da; --violet:#8250df; --amber:#9a6700; --cyan:#1b7c83;
  }
  @media (prefers-color-scheme: dark){
    :root{
      --bg:#0d1117; --border:#283039; --grid:#161c24; --card:#111820; --sunk:#0a0f16;
      --fg:#e6edf3; --muted:#9198a1; --dim:#6e7781; --line:#2b3542;
      --green:#3fb950; --blue:#58a6ff; --violet:#a371f7; --amber:#d29922; --cyan:#39c5cf;
    }
  }

  .k{font:600 12px ui-monospace,SFMono-Regular,'SF Mono',Menlo,Consolas,'Liberation Mono',monospace;letter-spacing:2.2px}
  .v{font:500 13px ui-monospace,SFMono-Regular,'SF Mono',Menlo,Consolas,'Liberation Mono',monospace;fill:var(--fg)}
  .chip{fill:var(--card);stroke:var(--line);stroke-width:1.5}
</style>
<rect x="1" y="1" width="1198" height="394" rx="18" fill="var(--bg)" stroke="var(--border)" stroke-width="1.5"/>
<line x1="250" y1="24" x2="250" y2="372" stroke="var(--border)"/>
<rect x="44" y="51" width="3" height="14" rx="1.5" fill="var(--violet)"/>
<text class="k" x="60" y="62" fill="var(--violet)">MOBILE</text>
<rect class="chip" x="282" y="43" width="122" height="30" rx="15"/><text class="v" x="343" y="62.55" text-anchor="middle">React Native</text>
<rect class="chip" x="413" y="43" width="83" height="30" rx="15"/><text class="v" x="454.5" y="62.55" text-anchor="middle">Flutter</text>
<rect class="chip" x="505" y="43" width="67" height="30" rx="15"/><text class="v" x="538.5" y="62.55" text-anchor="middle">Ionic</text>
<rect class="chip" x="581" y="43" width="98" height="30" rx="15"/><text class="v" x="630" y="62.55" text-anchor="middle">Capacitor</text>
<rect class="chip" x="688" y="43" width="75" height="30" rx="15"/><text class="v" x="725.5" y="62.55" text-anchor="middle">Kotlin</text>
<rect class="chip" x="772" y="43" width="83" height="30" rx="15"/><text class="v" x="813.5" y="62.55" text-anchor="middle">Android</text>
<rect x="44" y="107" width="3" height="14" rx="1.5" fill="var(--blue)"/>
<text class="k" x="60" y="118" fill="var(--blue)">WEB</text>
<rect class="chip" x="282" y="99" width="67" height="30" rx="15"/><text class="v" x="315.5" y="118.55" text-anchor="middle">React</text>
<rect class="chip" x="358" y="99" width="106" height="30" rx="15"/><text class="v" x="411" y="118.55" text-anchor="middle">TypeScript</text>
<rect class="chip" x="473" y="99" width="59" height="30" rx="15"/><text class="v" x="502.5" y="118.55" text-anchor="middle">Vite</text>
<rect class="chip" x="541" y="99" width="90" height="30" rx="15"/><text class="v" x="586" y="118.55" text-anchor="middle">Tailwind</text>
<rect class="chip" x="640" y="99" width="90" height="30" rx="15"/><text class="v" x="685" y="118.55" text-anchor="middle">Electron</text>
<rect x="44" y="163" width="3" height="14" rx="1.5" fill="var(--cyan)"/>
<text class="k" x="60" y="174" fill="var(--cyan)">BACKEND</text>
<rect class="chip" x="282" y="155" width="75" height="30" rx="15"/><text class="v" x="319.5" y="174.55" text-anchor="middle">Python</text>
<rect class="chip" x="366" y="155" width="83" height="30" rx="15"/><text class="v" x="407.5" y="174.55" text-anchor="middle">FastAPI</text>
<rect class="chip" x="458" y="155" width="67" height="30" rx="15"/><text class="v" x="491.5" y="174.55" text-anchor="middle">Flask</text>
<rect class="chip" x="534" y="155" width="83" height="30" rx="15"/><text class="v" x="575.5" y="174.55" text-anchor="middle">Node.js</text>
<rect class="chip" x="626" y="155" width="106" height="30" rx="15"/><text class="v" x="679" y="174.55" text-anchor="middle">PostgreSQL</text>
<rect class="chip" x="741" y="155" width="67" height="30" rx="15"/><text class="v" x="774.5" y="174.55" text-anchor="middle">Redis</text>
<rect class="chip" x="817" y="155" width="90" height="30" rx="15"/><text class="v" x="862" y="174.55" text-anchor="middle">Supabase</text>
<rect x="44" y="219" width="3" height="14" rx="1.5" fill="var(--green)"/>
<text class="k" x="60" y="230" fill="var(--green)">PLATFORM</text>
<rect class="chip" x="282" y="211" width="106" height="30" rx="15"/><text class="v" x="335" y="230.55" text-anchor="middle">Kubernetes</text>
<rect class="chip" x="397" y="211" width="98" height="30" rx="15"/><text class="v" x="446" y="230.55" text-anchor="middle">Azure AKS</text>
<rect class="chip" x="504" y="211" width="106" height="30" rx="15"/><text class="v" x="557" y="230.55" text-anchor="middle">Oracle OKE</text>
<rect class="chip" x="619" y="211" width="98" height="30" rx="15"/><text class="v" x="668" y="230.55" text-anchor="middle">Terraform</text>
<rect class="chip" x="726" y="211" width="75" height="30" rx="15"/><text class="v" x="763.5" y="230.55" text-anchor="middle">ArgoCD</text>
<rect class="chip" x="810" y="211" width="59" height="30" rx="15"/><text class="v" x="839.5" y="230.55" text-anchor="middle">Helm</text>
<rect class="chip" x="878" y="211" width="75" height="30" rx="15"/><text class="v" x="915.5" y="230.55" text-anchor="middle">Docker</text>
<rect x="44" y="275" width="3" height="14" rx="1.5" fill="var(--green)"/>
<text class="k" x="60" y="286" fill="var(--green)">RELIABILITY</text>
<rect class="chip" x="282" y="267" width="137" height="30" rx="15"/><text class="v" x="350.5" y="286.55" text-anchor="middle">GitHub Actions</text>
<rect class="chip" x="428" y="267" width="83" height="30" rx="15"/><text class="v" x="469.5" y="286.55" text-anchor="middle">Jenkins</text>
<rect class="chip" x="520" y="267" width="129" height="30" rx="15"/><text class="v" x="584.5" y="286.55" text-anchor="middle">NGINX Ingress</text>
<rect class="chip" x="658" y="267" width="75" height="30" rx="15"/><text class="v" x="695.5" y="286.55" text-anchor="middle">SigNoz</text>
<rect class="chip" x="742" y="267" width="98" height="30" rx="15"/><text class="v" x="791" y="286.55" text-anchor="middle">PagerDuty</text>
<rect x="44" y="331" width="3" height="14" rx="1.5" fill="var(--amber)"/>
<text class="k" x="60" y="342" fill="var(--amber)">SYSTEMS &amp; ML</text>
<rect class="chip" x="282" y="323" width="59" height="30" rx="15"/><text class="v" x="311.5" y="342.55" text-anchor="middle">Rust</text>
<rect class="chip" x="350" y="323" width="83" height="30" rx="15"/><text class="v" x="391.5" y="342.55" text-anchor="middle">PyTorch</text>
<rect class="chip" x="442" y="323" width="59" height="30" rx="15"/><text class="v" x="471.5" y="342.55" text-anchor="middle">YOLO</text>
<rect class="chip" x="510" y="323" width="75" height="30" rx="15"/><text class="v" x="547.5" y="342.55" text-anchor="middle">OpenCV</text>
<rect class="chip" x="594" y="323" width="98" height="30" rx="15"/><text class="v" x="643" y="342.55" text-anchor="middle">Streamlit</text>
</svg>