<svg xmlns="http://www.w3.org/2000/svg" viewBox="0 0 1200 300" width="1200" height="300" role="img" aria-labelledby="st">
<title id="st">Stack: platform, delivery, reliability and application tooling</title>
<style>
  :root{
    --bg:#f6f8fa; --border:#d8dee4; --grid:#e9edf1; --card:#ffffff;
    --fg:#1f2328; --muted:#59636e; --dim:#818b98;
    --accent:#1a7f37; --flow:#0969da; --line:#d8dee4;
  }
  @media (prefers-color-scheme: dark){
    :root{
      --bg:#0d1117; --border:#283039; --grid:#161c24; --card:#111820;
      --fg:#e6edf3; --muted:#9198a1; --dim:#6e7781;
      --accent:#3fb950; --flow:#58a6ff; --line:#2b3542;
    }
  }

  .k{font:500 12px ui-monospace,SFMono-Regular,'SF Mono',Menlo,Consolas,'Liberation Mono',monospace;fill:var(--dim);letter-spacing:2.4px}
  .v{font:500 13px ui-monospace,SFMono-Regular,'SF Mono',Menlo,Consolas,'Liberation Mono',monospace;fill:var(--fg)}
  .chip{fill:var(--card);stroke:var(--line);stroke-width:1.5}
</style>
<rect x="1" y="1" width="1198" height="298" rx="18" fill="var(--bg)" stroke="var(--border)" stroke-width="1.5"/>
<line x1="272" y1="26" x2="272" y2="274" stroke="var(--border)" stroke-width="1"/>
<text class="k" x="48" y="67">PLATFORM</text>
<rect class="chip" x="304" y="48" width="106" height="30" rx="8"/>
<text class="v" x="357" y="67.5" text-anchor="middle">Kubernetes</text>
<rect class="chip" x="420" y="48" width="98" height="30" rx="8"/>
<text class="v" x="469" y="67.5" text-anchor="middle">Azure AKS</text>
<rect class="chip" x="528" y="48" width="106" height="30" rx="8"/>
<text class="v" x="581" y="67.5" text-anchor="middle">Oracle OKE</text>
<rect class="chip" x="644" y="48" width="59" height="30" rx="8"/>
<text class="v" x="673.5" y="67.5" text-anchor="middle">Helm</text>
<rect class="chip" x="713" y="48" width="129" height="30" rx="8"/>
<text class="v" x="777.5" y="67.5" text-anchor="middle">NGINX Ingress</text>
<text class="k" x="48" y="125">DELIVERY</text>
<rect class="chip" x="304" y="106" width="98" height="30" rx="8"/>
<text class="v" x="353" y="125.5" text-anchor="middle">Terraform</text>
<rect class="chip" x="412" y="106" width="75" height="30" rx="8"/>
<text class="v" x="449.5" y="125.5" text-anchor="middle">ArgoCD</text>
<rect class="chip" x="497" y="106" width="75" height="30" rx="8"/>
<text class="v" x="534.5" y="125.5" text-anchor="middle">GitOps</text>
<rect class="chip" x="582" y="106" width="137" height="30" rx="8"/>
<text class="v" x="650.5" y="125.5" text-anchor="middle">GitHub Actions</text>
<rect class="chip" x="729" y="106" width="75" height="30" rx="8"/>
<text class="v" x="766.5" y="125.5" text-anchor="middle">Docker</text>
<text class="k" x="48" y="183">RELIABILITY</text>
<rect class="chip" x="304" y="164" width="75" height="30" rx="8"/>
<text class="v" x="341.5" y="183.5" text-anchor="middle">SigNoz</text>
<rect class="chip" x="389" y="164" width="98" height="30" rx="8"/>
<text class="v" x="438" y="183.5" text-anchor="middle">PagerDuty</text>
<rect class="chip" x="497" y="164" width="83" height="30" rx="8"/>
<text class="v" x="538.5" y="183.5" text-anchor="middle">on-call</text>
<text class="k" x="48" y="241">APPLICATION</text>
<rect class="chip" x="304" y="222" width="75" height="30" rx="8"/>
<text class="v" x="341.5" y="241.5" text-anchor="middle">Python</text>
<rect class="chip" x="389" y="222" width="83" height="30" rx="8"/>
<text class="v" x="430.5" y="241.5" text-anchor="middle">FastAPI</text>
<rect class="chip" x="482" y="222" width="106" height="30" rx="8"/>
<text class="v" x="535" y="241.5" text-anchor="middle">TypeScript</text>
<rect class="chip" x="598" y="222" width="59" height="30" rx="8"/>
<text class="v" x="627.5" y="241.5" text-anchor="middle">Rust</text>
<rect class="chip" x="667" y="222" width="67" height="30" rx="8"/>
<text class="v" x="700.5" y="241.5" text-anchor="middle">React</text>
<rect class="chip" x="744" y="222" width="122" height="30" rx="8"/>
<text class="v" x="805" y="241.5" text-anchor="middle">React Native</text>
<rect class="chip" x="876" y="222" width="106" height="30" rx="8"/>
<text class="v" x="929" y="241.5" text-anchor="middle">PostgreSQL</text>
<rect class="chip" x="992" y="222" width="67" height="30" rx="8"/>
<text class="v" x="1025.5" y="241.5" text-anchor="middle">Redis</text>
</svg>